<svg xmlns="http://www.w3.org/2000/svg" version="1.1" xmlns:xlink="http://www.w3.org/1999/xlink" xmlns:svgjs="http://svgjs.dev/svgjs" width="2612" height="1608"><svg xmlns="http://www.w3.org/2000/svg" xmlns:xlink="http://www.w3.org/1999/xlink" width="2612" height="1608">
	<path fill="#FE0B05" transform="matrix(4.80147 0 0 4.8 -6.10352e-05 0)" d="M299.182 14.1625C299.806 17.624 300.697 21.4129 301.828 24.7448C302.683 27.2631 304.048 29.8264 304.432 32.4722C305.669 41.0009 302.729 52.7317 306.381 60.4094C305.668 62.4141 306.893 64.9979 307.27 67.0213C307.567 67.8843 307.863 68.7137 308.269 69.533C311.183 69.9275 314.334 70.061 317.275 69.9641C323.857 70.4862 330.554 70.2422 337.153 70.2196C340.698 70.2075 344.507 69.9247 347.98 70.6863C348.984 71.6945 349.309 72.9393 349.502 74.3158C350.365 80.4685 349.894 87.2011 349.896 93.418L349.934 126.297C349.931 128.725 349.965 131.6 349.007 133.859C345.866 136.609 320.375 133.502 313.986 135.548C310.722 136.593 308.168 138.847 305.839 141.263C303.461 143.731 302.239 144.617 301.992 148.244C301.702 152.504 301.98 156.911 302.067 161.181C302.701 162.225 303.296 163.195 304.154 164.072C303.658 165.808 303.275 167.463 301.58 168.43C300.6 168.988 299.371 169.194 298.284 169.447L297.657 172.164C294.789 172.81 291.576 173.339 288.922 174.654C286.157 176.023 283.824 178.29 281.338 180.095C279.297 181.578 277.104 182.846 275.078 184.342C272.884 185.963 270.586 188.436 267.894 189.087C267.606 189.157 267.31 189.091 267.064 188.919C265.182 187.606 263.456 185.612 261.722 184.075C258.78 181.466 254.546 178.064 251.359 175.753C247.087 172.656 243.376 174.73 240.308 169.201C237.73 168.784 233.715 168.58 231.665 166.948C232.597 166.134 233.094 165.447 233.585 164.321C237.483 155.39 237.743 156.028 234.171 146.891C234.213 146.82 234.258 146.751 234.298 146.679C235.517 144.516 234.227 140.877 233.603 138.634C231.927 138.006 227.609 136.416 226.017 137.082C227.406 138.821 230.726 138.022 232.68 138.788C233.243 139.009 233.264 139.051 233.531 139.596C232.784 140.59 230.283 140.902 229.103 140.647C226.076 139.994 224.672 138.268 221.16 139.726C214.779 140.337 201.536 139.876 195.674 137.506C193.384 136.58 191.702 135.085 190.758 132.774C189.418 129.497 188.124 119.775 188.014 116.021C187.859 110.743 189.49 105.672 189.823 100.426C190.106 95.9713 189.178 76.9319 190.365 74.0206C193.28 71.7695 220.959 73.7566 226.734 73.0651C227.515 72.9716 228.443 72.8394 229.109 72.395C230.882 71.2132 233.292 67.423 234.708 65.6101C235.339 59.8571 234.492 16.2287 235.267 15.4113C236.151 14.4783 238.585 14.3252 239.798 14.2228C245.786 13.7172 252.02 14.0567 258.042 14.0565C271.742 14.056 285.489 14.3287 299.182 14.1625Z"></path>
	<path fill="#DF96AF" transform="matrix(4.80147 0 0 4.8 -6.10352e-05 0)" d="M306.381 60.4094C307.803 62.456 309.361 63.9849 311.332 65.5136C310.488 66.3557 309.388 67.2199 308.127 67.2082C307.836 67.2055 307.543 67.1147 307.27 67.0213C306.893 64.9979 305.668 62.4141 306.381 60.4094Z"></path>
	<path fill="#F73939" transform="matrix(4.80147 0 0 4.8 -6.10352e-05 0)" d="M311.332 65.5136C313.313 66.886 315.569 68.2612 317.275 69.9641C314.334 70.061 311.183 69.9275 308.269 69.533C307.863 68.7137 307.567 67.8843 307.27 67.0213C307.543 67.1147 307.836 67.2055 308.127 67.2082C309.388 67.2199 310.488 66.3557 311.332 65.5136Z"></path>
	<path fill="#268A63" transform="matrix(4.80147 0 0 4.8 -6.10352e-05 0)" d="M304.154 164.072C305.589 165.354 307.039 166.831 308.627 167.918C314.772 168.406 321.988 168.498 328.114 167.917Q329.765 166.554 331.467 165.255C334.898 164.883 338.445 165.069 341.894 165.081C348.658 165.105 355.445 165.242 362.207 165.065C365.556 164.978 367.019 163.264 370.495 163.1C376.055 162.837 381.76 163.543 387.291 162.994C389.606 162.765 391.441 161.181 393.763 161.062C399.041 160.792 404.73 161.788 409.918 160.842C413.79 160.135 417.314 157.684 420.991 156.363C422.252 155.91 423.638 156.039 424.903 155.619C427.068 154.901 429.042 153.585 431.173 152.766C432.904 152.101 434.865 152.267 436.61 151.704C438.521 151.088 440.479 149.543 442.292 148.6C445.123 147.127 448.226 146.22 450.85 144.358C453.32 142.606 454.927 139.741 457.243 137.791C460.481 135.066 464.47 134.674 467.292 131.191C468.948 129.147 469.963 126.663 471.591 124.606C473.157 122.628 475.172 120.972 476.892 119.125C479.588 116.229 482.808 112.03 484.889 108.671C485.804 107.194 485.836 105.276 486.704 103.76C487.259 102.791 488.467 102.134 488.905 101.203C493.251 100.897 497.259 100.537 501.166 102.836C502.724 103.752 504.295 104.914 505.925 105.675C507.016 106.185 508.34 106.057 509.424 106.505C510.87 107.173 512.959 109.573 513.479 111.074C513.525 111.209 513.548 111.395 513.569 111.528C514.953 111.82 516.702 112.009 517.982 112.587C521.24 114.058 524.292 118.497 526.207 121.434C528.266 124.59 530.883 130.085 530.077 133.938C530.042 134.103 529.948 134.316 529.89 134.464C531.787 135.798 532.568 137.158 532.947 139.449C533.335 141.798 533.299 162.508 532.847 164.638C532.456 166.478 530.824 167.782 530.416 169.604C529.86 172.087 530.304 174.758 528.698 176.93C527.374 178.72 524.733 179.041 522.704 179.552C519.726 180.302 517.066 181.321 514.354 182.774C512.506 183.765 510.632 184.979 508.662 185.682C503.859 187.395 498.746 188.328 494.005 190.139C491.388 191.138 489.398 193.422 486.84 194.313C484.441 195.148 481.861 195.696 479.41 196.385C475.712 197.425 472.056 198.573 468.38 199.68C461.1 201.873 454.295 206.266 447.394 209.424C444.664 210.674 441.644 211.075 438.957 212.502C436.999 213.542 435.578 215.46 433.614 216.454C427.586 219.504 421.106 221.538 415.271 225.012C408.755 228.89 404.249 234.879 399.039 240.223C396.778 242.542 394.203 244.441 392.401 247.185C390.638 249.871 389.422 253.496 388.352 256.509C387.263 259.577 386.083 263.042 385.448 266.239C384.895 269.026 385.35 271.987 384.18 274.651C381.763 280.149 378.147 285.172 374.629 290.009C373.795 291.155 372.796 292.209 372.019 293.392C371.101 294.787 370.856 296.608 369.75 297.884C368.001 299.901 365.798 301.478 363.911 303.355C358.878 308.36 354.003 313.676 348.708 318.401C347.173 319.772 345.807 320.952 343.928 321.865C341.161 323.209 338.224 324.071 335.393 325.251C333.52 326.032 331.801 327.165 329.96 328.018C327.516 329.15 322.469 330.547 319.738 330.937Q318.757 331.068 317.768 331.022Q316.779 330.977 315.814 330.757C313.92 330.342 312.109 329.496 310.209 329.138C306.069 328.359 298.84 328.869 294.488 328.869L254.997 328.878C248.235 328.88 241.448 328.742 234.689 328.894C232.159 328.951 230.382 330.099 228.02 330.679C224.559 331.528 217.601 331.253 214.076 330.613C209.061 329.702 206.358 327.67 202.003 325.516C196.579 322.835 192.166 320.924 187.261 317.135C184.312 314.856 182.025 312.081 179.454 309.416C177.546 307.439 175.26 305.83 173.429 303.779C171.685 301.826 170.236 299.524 168.684 297.413C165.232 292.718 161.882 288.087 158.628 283.251C157.083 280.956 155.255 278.744 153.871 276.361C152.689 274.326 151.874 272.079 150.747 270.011C149.384 267.51 147.304 264.912 146.515 262.182L146.458 261.99C145.409 258.352 146.18 254.634 144.591 251.018C143.178 247.804 140.742 245.636 138.962 242.721C137.378 240.129 136.616 237.158 134.78 234.685C131.003 229.598 125.94 225.179 121.795 220.358C120.343 218.668 119.615 216.4 118.099 214.775C116.808 213.391 109.085 206.499 107.789 205.755C106.776 205.173 105.47 205.069 104.52 204.364C101.901 202.421 100.192 199.891 97.1685 198.366C94.2025 196.869 90.7193 196.955 87.8511 195.275C83.4847 192.717 79.7112 189.167 75.0585 187.012C72.4073 185.785 69.5318 184.534 66.7766 183.576C62.9004 182.227 59.1349 181.286 55.3903 179.49C51.1935 177.477 47.8867 173.96 43.625 172.044C41.3844 171.037 38.9127 170.616 36.6255 169.728C34.3051 168.827 32.2214 167.068 30.0132 165.9C28.0105 164.841 25.6985 164.135 23.8286 162.874C20.4998 160.63 17.1398 157.338 14.3528 154.433C12.6377 152.646 11.1027 150.779 9.11968 149.271C9.0201 147.504 8.93065 145.746 8.54508 144.014C8.02858 141.694 7.07276 139.259 6.96421 136.885C6.83805 134.125 9.03985 127.427 10.1984 124.791C11.0738 122.8 12.2377 120.925 13.2478 119C13.9519 117.658 14.5305 116.057 15.5434 114.919C17.4773 112.747 20.3059 111.57 22.0493 109.205C23.4836 107.259 23.5944 104.417 25.3468 102.678C26.5038 101.53 41.3595 93.0686 42.0755 93.0485C42.1537 93.0464 42.3525 93.1145 42.4128 93.132C45.6583 94.0756 50.0445 96.6469 52.0578 99.4317C53.0226 100.766 53.6772 102.301 54.6274 103.643C56.2424 105.922 59.5819 109.953 61.5394 111.931C63.8353 114.25 66.9289 115.622 69.419 117.707C71.7585 119.666 74.0576 121.756 76.2649 123.862C78.2084 125.717 80.0127 127.807 82.2848 129.268C84.972 130.996 88.2305 131.419 90.8737 133.426C95.0743 136.615 98.1479 141.085 102.007 144.626C103.486 144.985 105.054 145.145 106.482 145.657C109.398 146.702 112.177 148.348 115.227 148.954C118.282 149.562 121.584 148.567 124.547 149.75C126.543 150.547 128.449 151.65 130.413 152.535C134.086 154.191 137.83 155.734 141.462 157.476C143.797 158.596 145.987 160.124 148.503 160.813C151.469 161.625 154.916 160.951 157.966 161.211C159.73 161.361 160.995 162.531 162.665 162.823C164.946 163.221 167.369 163.037 169.678 163.262C171.886 163.477 173.916 164.261 176.071 164.687C178.359 165.141 181.022 165.011 183.17 165.96C184.116 166.378 184.881 167.184 185.625 167.885C188.077 168.106 190.644 168.272 193.091 167.927Q194.793 166.561 196.528 165.238C201.674 164.81 207.077 165.12 211.87 167.215C216.476 169.227 219.729 175.193 225.39 172.366C227.856 171.135 229.549 168.658 231.665 166.948C233.715 168.58 237.73 168.784 240.308 169.201C243.376 174.73 247.087 172.656 251.359 175.753C254.546 178.064 258.78 181.466 261.722 184.075C263.456 185.612 265.182 187.606 267.064 188.919C267.31 189.091 267.606 189.157 267.894 189.087C270.586 188.436 272.884 185.963 275.078 184.342C277.104 182.846 279.297 181.578 281.338 180.095C283.824 178.29 286.157 176.023 288.922 174.654C291.576 173.339 294.789 172.81 297.657 172.164L298.284 169.447C299.371 169.194 300.6 168.988 301.58 168.43C303.275 167.463 303.658 165.808 304.154 164.072ZM235.943 186.033C234.809 186.455 233.656 186.985 232.494 187.312C230.948 187.747 229.107 187.881 227.677 188.617C225.787 189.59 224.222 191.4 222.745 192.904C217.062 198.691 214.612 201.792 211.227 209.271C208.661 214.942 210.866 218.391 211.88 223.804C212.149 225.243 212.133 226.826 212.206 228.29C216.922 234.102 216.513 236.23 219.506 241.93C220.7 244.205 222.408 246.249 223.863 248.361C225.026 250.05 226.061 251.834 227.264 253.494C230.693 258.221 236.113 261.641 240.21 265.789C242.081 267.682 243.663 269.834 245.479 271.775C249.182 275.732 253.112 279.541 256.969 283.351C258.478 284.841 259.911 286.646 261.63 287.894C263.862 289.514 267.523 290.801 270.235 291.104C271.75 291.273 273.63 291.311 274.875 290.312C277.943 287.85 280.667 284.634 283.446 281.846C287.295 277.985 291.611 274.198 294.986 269.93Q298.865 265.138 303.453 261.021C305.439 259.236 307.606 257.614 309.48 255.711C312.186 252.964 314.235 249.698 316.558 246.64C318.564 244 320.949 241.566 322.686 238.734C325.244 234.565 328.075 225.872 328.732 221.031C329.213 217.485 329.188 213.056 328.814 209.494C327.996 201.713 324.228 196.694 318.225 191.959C316.524 190.617 314.639 190.071 312.852 188.979C311.676 188.26 310.651 186.848 309.345 186.395C306.34 185.353 294.614 185.717 291.173 186.148C283.494 187.108 274.992 197.671 269.905 198.556C268.474 198.805 267.191 198.16 266.098 197.305C262.953 194.846 261.018 191.098 257.976 188.543C254.827 187.869 251.676 186.744 248.528 186.213C244.546 185.542 239.975 185.861 235.943 186.033Z"></path>
	<path fill="#F73939" transform="matrix(4.80147 0 0 4.8 -6.10352e-05 0)" d="M221.16 139.726C224.672 138.268 226.076 139.994 229.103 140.647C230.283 140.902 232.784 140.59 233.531 139.596C233.264 139.051 233.243 139.009 232.68 138.788C230.726 138.022 227.406 138.821 226.017 137.082C227.609 136.416 231.927 138.006 233.603 138.634C234.227 140.877 235.517 144.516 234.298 146.679C234.258 146.751 234.213 146.82 234.171 146.891C233.713 146.248 233.239 145.619 232.719 145.024C228.924 140.677 226.708 140.092 221.16 139.726Z"></path>
</svg><style>@media (prefers-color-scheme: light) { :root { filter: none; } }
@media (prefers-color-scheme: dark) { :root { filter: none; } }
</style></svg>